<?xml version="1.0" encoding="utf-8"?>
<!-- Generator: Adobe Illustrator 22.0.0, SVG Export Plug-In . SVG Version: 6.00 Build 0)  -->
<svg version="1.1" id="Layer_1" xmlns="http://www.w3.org/2000/svg" xmlns:xlink="http://www.w3.org/1999/xlink" x="0px" y="0px"
	 viewBox="0 0 2207 2500" style="enable-background:new 0 0 2207 2500;" xml:space="preserve">
<style type="text/css">
	.st0{fill:#00AC5F;}
	.st1{fill:#F94151;}
	.st2{fill:#2B6ED4;}
</style>
<path class="st0" d="M1272.9,2504.7c51.7-1,92.8-43.8,91.8-95.6l-19.3-954.8l670.8-397.4l7.7,380.7l-141.2,83.9
	c-28.5-15.7-60.6-23.6-93.2-22.9c-102.5,2.1-184,86.9-181.9,189.4c2.1,102.5,86.9,184,189.4,181.9c101.9-2.1,183-85.9,181.9-187.6
	l187.6-111.6c29-17.2,46.5-48.7,45.8-82.4l-12.1-595.9c-1.1-51.7-43.8-92.8-95.6-91.8c-15.9,0.3-31.7,4.7-45.9,13.1l-856.1,507.1
	c-29.1,17.2-46.6,48.7-45.9,82.5l20.4,1009.5C1178.3,2464.6,1221.1,2505.7,1272.9,2504.7"/>
<path class="st1" d="M12.4,861.4c-25.1,45.2-8.9,102.3,36.4,127.4l829.4,456.5l5.7,793.3l-353.3-198.5l-1.8-196.4
	c27.9-16.7,51-40.5,66.7-69c49.8-89.6,17.6-202.7-72.1-252.6c-89.6-49.8-202.7-17.6-252.6,72.1c-49.5,89.1-17.9,201.4,70.5,251.6
	l2.3,250.4c0.3,33.7,18.7,64.7,48.2,81.1l541.3,303c45.2,25.1,102.3,8.9,127.4-36.4c7.7-13.9,15.6-29.8,15.5-46.2l-10.9-1008.6
	c-0.2-33.8-18.6-64.8-48.2-81.2L139.8,825C94.6,799.8,37.5,816.1,12.4,861.4"/>
<path class="st2" d="M153,816.9l926.3,507.6c29.1,15.9,64.4,15.3,92.9-1.6l910.4-540.8c44.5-26.4,59.1-83.9,32.7-128.4
	c-26.4-44.5-83.9-59.1-128.4-32.7l-864.4,513.5L387.9,731.9l631.5-370.8c28.2,15.2,59.9,22.9,92,22.3
	c103.5-1.8,185.9-87.2,184.1-190.7c-1.8-103.5-87.2-185.9-190.7-184.1c-103.5,1.8-185.9,87.2-184.1,190.7c0,0.8,0.1,1.6,0.1,2.4
	L150.6,654c-44.6,26.2-59.6,83.6-33.4,128.3C125.8,796.8,138.1,808.8,153,816.9c305.6-57.1,611.2-114.1,916.8-171.2"/>
<g>
	<path d="M1178.8,764.4c-2.1,5.5-3,12-2.6,19.4c0.4,8,1.9,18.1,4.6,30.2c2.7,12.1,6.9,30.2,12.7,54.1l10.2,41
		c12,49.2,21.7,83.2,28.8,102.1c1.5,4.3,1.4,8.7-0.2,13.2c-1.7,4.5-5.8,8.7-12.2,12.5c-1.5,0.9-12.4-5.5-32.7-19.2
		c-20.3-13.7-47.2-32.1-80.7-55.2c-20.1-13.7-39.6-25.9-58.5-36.8c-18.9-10.9-30.6-16.6-35.3-17.2c-6-0.4-9.9-2.3-11.9-5.7
		c-0.9-1.6-0.5-4.7,1.2-9.4c1.7-4.7,4.4-8.1,7.8-10.1c2.2-1.3,4.1-1.9,5.5-1.7c1.5,0.2,3.7,0.9,6.8,2.1c5.8,2.4,16.6,8.5,32.5,18.4
		c15.9,9.9,32.7,21,50.4,33.4l70.3,49.2c22,15,34.7,23.9,38.4,26.6c-2-4.6-5.8-16.1-11.1-34.5c-5.4-18.4-11.2-39.4-17.3-62.8
		c-8.8-34.1-15.5-61.1-20.1-81c-4.6-19.9-7.5-36.3-8.7-49c-1-11.3-0.9-19.4,0.2-24.3c1.1-4.9,3.5-8.5,7.2-10.7
		c1.2-0.7,4.3-0.2,9.1,1.7c4.8,1.9,7.5,3.4,8.2,4.5C1181.7,755.8,1180.9,758.9,1178.8,764.4z"/>
	<path d="M1228.5,727.1c0,0-4.1,2.4-12.3,7.3c-4.2,2.5-9.4,3.5-15.6,2.9c-6.2-0.6-9.9-1.9-11.1-3.9c-1.5-2.5-1.6-5.6-0.3-9.4
		c1.3-3.8,3.3-6.5,6-8.1c4.4-1.1,8.6-1.1,12.5-0.1c3.1,0.6,6.7,1.7,10.9,3.1c4.2,1.5,6.5,2.5,6.9,3.2
		C1227.5,725.4,1228.5,727.1,1228.5,727.1z M1360.7,936.4c-1.4,2.5-3.5,4.4-6.4,5.8c-3.6,1.8-9.2-1.7-16.6-10.7
		c-7.5-9-20.3-26.8-38.5-53.5c-11.8-17.7-23.2-35-34.3-52.1c-11.1-17-19.6-30.2-25.4-39.5c-1.5-2.5-2.1-4.6-2-6.4
		c0.1-1.7,1.4-3.4,3.9-4.8c5.7-3.4,10.6-3.4,14.6,0c4,3.4,9.6,11.2,16.8,23.4l23.3,40.1c13.5,22.8,25,40.6,34.7,53.5
		c0.4,0.7,5.8,7.2,16.2,19.7c7.3,8.4,11.9,14.2,13.8,17.4C1362.1,931.5,1362.1,933.9,1360.7,936.4z"/>
	<path d="M1475.9,776.1c-0.9,10-2.4,19.4-4.2,28.1c-4.5,21.8-9.6,39.6-15.4,53.4c-5.8,13.8-14.2,23.9-25.4,30.5
		c-9.4,5.6-19.4,6.5-29.9,2.6c-10.5-3.8-18.6-10.6-24.3-20.3c-8.5-14.4-15.1-35.2-19.8-62.3c-4.7-27.1-5.3-52.6-2-76.4
		c3.3-23.9,11.4-39.6,24.3-47.3c5.5-3.2,11.2-4.2,17.3-3c3.4,0.7,7.1,2.2,11.1,4.4c4,2.2,6.8,4.7,8.4,7.4c2.3,3.8,4.3,8.6,6.2,14.3
		c1.9,5.7,2.2,9,1,9.7c-2.5,1.5-4.8,1.2-7-0.9c-2.2-2-4.6-4.9-7.1-8.6c-4.2-5.4-7.3-8.9-9.1-10.3c-1.9-1.5-3.6-1.8-5-0.9
		c-11.7,6.9-18.6,21-20.7,42.2c-2.2,21.2-1,43.7,3.6,67.3c4.6,23.6,10,40.7,16.3,51.3c8.8,14.9,18.7,19.1,29.6,12.6
		c7.9-4.7,14.1-10.8,18.6-18.3c4.4-7.5,8.3-16.6,11.6-27.4c6.1-20.3,10.1-37.2,12.2-50.6c0.1-1,0.5-3.6,1.2-7.8
		c0.7-4.2,1.5-6.6,2.5-7.2c3-1.8,5.1-1.6,6.3,0.4C1476.9,760.5,1476.8,766.2,1475.9,776.1z"/>
	<path d="M1692.5,708.9c2.7,0.7,4.4,1.6,5.1,2.7c1.6,2.7,2.2,6.5,1.8,11.5c-0.4,5-1.9,8.2-4.3,9.6c-4.2,2.5-8.8,2-13.9-1.4
		c-5-3.4-9.4-8.3-13.2-14.6c-3.2-5.4-12.4-21.9-27.7-49.4l-7.2-13.1c-3.1-5.2-6.8-8-11.1-8.5c-1,23.7-2.6,44.8-4.8,63.1
		c-2.2,18.4-7.4,37.5-15.7,57.5s-20.6,34.8-37,44.5c-7.9,4.7-15.4,6.1-22.4,4.1c-7-1.9-12.6-6.5-16.9-13.7c-5.3-9-8.2-24-8.5-45
		c-0.3-21,1.6-43.6,6-67.9c4.3-24.3,10.4-45.8,18.1-64.4c5.2-12.2,9.8-21.1,13.8-26.7c4.1-5.6,8.2-9.6,12.4-12.1
		c4-2.3,8.7-3.6,14.3-3.9c5.5-0.2,11,0.8,16.4,3.1c5.4,2.3,9.6,6,12.7,11.2c4.1,7,6,14.9,5.5,23.7l5.3-5.4c2.7-1.6,6.1,0.5,10.2,6.3
		c2.4,3.5,7,10.6,13.9,21.4c6.9,10.8,12.6,19.8,17.1,26.8c4.7,7.3,9.2,14.4,13.6,21.2c4.4,6.8,7.9,12.2,10.6,16.1
		C1687.8,707.1,1689.8,708.2,1692.5,708.9z M1589.6,753.1c7.1-16.4,11.8-33.7,14.2-52c2.4-18.3,4.1-40.1,5.2-65.4
		c-1-8.5-3.9-16.7-8.6-24.6c-2.8-4.7-6.8-7.9-12-9.6c-5.2-1.7-10.4-0.9-15.6,2.1c-6.2,3.7-11.9,12.2-17,25.6
		c-6.1,15.2-11.1,33.6-15,55.2c-3.9,21.7-5.8,41.9-5.8,60.7c0.1,18.8,2.5,32.3,7.3,40.4c4,6.8,9.5,8.1,16.4,4
		C1572.3,781.6,1582.5,769.5,1589.6,753.1z"/>
	<path d="M1785,493.8c-1.6,4.4-3.5,7.3-5.7,8.6c-1.7,1-3.8,1.3-6.2,0.9c-2.4-0.4-5.3-1.2-8.8-2.6c-3.1-1.2-6.5-1.8-10.3-1.7
		c-3.8,0.1-7.2,1-10.1,2.8c-7.2,4.3-11.8,18.6-13.7,43c-1.9,24.4-1,53.2,2.8,86.2c3.3,5,7.6,11.3,12.9,18.8
		c5.3,7.5,9.2,13.1,11.7,16.8l9.1,12.9c1.9,3.2,2.8,6.4,2.7,9.6s-2.1,6-6.1,8.4c-4.2,2.5-10-1-17.3-10.5c-7.3-9.5-16.9-24-28.8-43.5
		c-3.2-4.8-7.6-11.8-13.2-21c-5.6-9.2-12.4-20-20.6-32.6c-12.2-18.9-20.8-32.6-25.7-40.9c-3.1-5.2-1.1-9.8,5.8-13.9
		c4.2-2.5,7.7-2.4,10.5,0.4c2.8,2.8,6.9,8.8,12.4,18l31.8,53.8c-2.8-21.8-3.7-41.5-2.4-59.3c1.2-17.8,4-32.4,8.4-44
		c4.4-11.6,9.8-19.3,16.2-23.1c5.5-3.2,11.3-5.2,17.6-5.9c6.3-0.7,12-0.2,17,1.6c5,1.7,8.5,4.2,10.4,7.3
		C1786.7,486.1,1786.5,489.4,1785,493.8z"/>
</g>
<g>
	<g>
		<path d="M149.4,1271.4c-11.8,5.7-24.7,8.9-38.8,9.5c-14.1,0.6-27.4-1.9-40-7.6c-10.5-4.7-18-9.3-22.6-13.8
			c-4.5-4.4-5.5-8.2-2.8-11.4c1.4-1.7,4.8-3.9,10.3-6.8c5.5-2.9,8.8-4.1,10-3.5c1.9,0.8,2.5,1.7,1.8,2.5c-0.4,0.5-1.2,1-2.2,1.4
			c-1.1,0.4-1.9,1-2.4,1.6c-0.4,0.5,0,1.7,1.1,3.6c1.1,1.9,3.4,4.2,6.9,6.9c3.5,2.7,8.2,5.4,14.1,8.1c9.6,4.3,19.5,6.2,29.9,5.6
			c10.3-0.6,19.7-3,28.1-7.2c8.4-4.2,14.5-9.1,18.6-14.8c5.3-7.4,6.4-15.3,3.4-23.7c-2.9-8.3-9.8-18.2-20.7-29.4
			c-10-11.1-17.3-20-22.1-26.6c-4.7-6.6-7.3-13.3-8.1-20.1c-0.7-6.8,1.6-13.7,6.7-20.7c6.8-9.4,17.7-16.8,32.8-22.1
			c14.9-5.3,30.7-8,47.3-8.1c16.7,0,30.8,2.6,42.2,7.8c5.9,2.7,8.3,5.6,7.1,8.7c-1.2,3.1-2.9,6.4-5,10c-1.6,2.7-3.2,3.6-4.9,2.9
			c-0.8-0.3-1.4-1-2-2.1c-0.6-1.1-1.2-1.9-1.7-2.6c-0.7-0.8-1.5-1.6-2.5-2.5c-1-0.9-2.6-1.9-4.8-2.9c-7.7-3.5-18.3-5.3-31.9-5.3
			c-13.6,0-26.5,1.7-38.7,5.2c-12.3,3.5-20.8,8.4-25.3,14.8c-3.7,5.2-5.2,10.4-4.3,15.8c0.8,5.4,3.3,10.8,7.4,16.2
			c4.2,5.4,10.5,12.7,19.1,21.8c13.2,13.2,21.7,25.3,25.4,36c3.8,10.8,2.3,21.2-4.7,31.2C169.9,1258.4,161,1265.6,149.4,1271.4z"/>
		<path d="M272.9,1312.7c-11,6.6-23.5,11-37.5,13c-14,2.1-27.1,0.3-39.4-5.1c-12-5.3-18.4-12.4-19.5-21.3c-1-8.8,1.8-18,8.5-27.5
			c5.8-8.3,14.3-18,25.6-29c11.1-11.1,22.4-20.4,33.9-27.9c0.8-0.6,3.8-2.6,8.9-6c5.2-3.5,9.9-5.7,14.4-6.8
			c4.4-1.1,8.3-0.9,11.6,0.6c1.5,0.7,2.6,1.7,3.4,3.1c0.8,1.4,0.8,2.7,0.1,3.9c-0.2,0.4-1.2,1-2.9,1.9c-1.7,0.9-3,1.6-4,2.1
			c-10.1,4.7-19.1,9.9-27,15.4c-10.4,6.9-19.8,14.1-28.1,21.7c-8.4,7.6-16.1,16.4-23.1,26.7c-9.5,13.7-5.9,24.2,11.1,31.8
			c8.1,3.6,17.1,4.7,27.1,3.2c10-1.4,19.2-4.5,27.5-9.3c8.3-4.8,14.2-9.9,17.6-15.4c3.8-6.2,5-12.6,3.7-19
			c-1.3-6.4-3.9-13.8-7.7-22.1c-2.5-5.4-4.1-9.6-4.8-12.7c-0.8-3.1-0.7-5.3,0.1-6.7c1.3-2.1,3.8-3.2,7.5-3.3c3.7,0,7.5,0.8,11.4,2.6
			c2.2,1,3.6,1.8,4.2,2.4c0.5,0.6,0.6,1.2,0.2,1.9c-0.2,0.4-0.8,0.8-1.9,1.3c-1.1,0.5-1.8,1.1-2.1,1.6c-0.3,0.5,0.4,3.1,2.1,7.7
			c3.5,9,5.9,17.7,7.2,25.9c1.3,8.2-0.5,16.5-5.4,24.7C291.4,1299.2,283.8,1306,272.9,1312.7z"/>
		<path d="M472.1,1443.5c-2.5,0.8-5.2,0.6-8-0.6c-3.9-1.7-4.9-4.2-3.2-7.5c18.8-37.1,31.2-66.4,37.7-87.6
			c6.4-21.3,6.3-33.4-0.1-36.2c-10.7-4.7-42.6,23.5-99.3,83.3l-0.1,0.3c-1.2,2.2-3.1,3.7-5.5,4.5c-2.5,0.8-5.1,0.6-7.7-0.5
			c-3.7-1.6-4.6-4-2.7-7.3c4.1-7.2,10.7-18.3,19.7-33.1c9.8-16.8,17.2-30.2,22.2-40.1c6.8-13.8,11.2-23.9,13.1-30.1
			c1.9-6.2,1.4-10-1.4-11.2c-6.4-2.9-20.2,5.1-41.6,23.6c-22,18.3-47.2,40.2-76.1,65.5l-6.9,5.8c-1.9,1.4-3.9,2.4-6.2,3
			c-2.2,0.6-4.2,0.5-6-0.3c-2.3-1-3.8-1.9-4.3-2.6c-0.6-0.7-0.4-2,0.6-3.8c4.5-9.1,10.9-21,19.1-35.9c1.9-3.9,5.1-10.2,9.8-19
			c15.5-31.2,25.2-52.6,29.6-64.1c4.3-11.5,6.8-17.9,7.4-19.2c0.8-1.5,2.4-2.9,4.8-4.3c2.4-1.4,4.3-1.8,5.5-1.2
			c2.8,1.3,4.1,4.4,3.7,9.4c-0.1,2.4-3.3,10.9-9.5,25.5c-6.4,14.5-14.9,32.2-25.7,53.2l-22.7,41.7c28.4-25.7,54.7-48.8,79.1-69.2
			c23.7-20.6,39.9-29,49.1-25c6.2,2.8,8.5,9.1,6.6,19.1c-1.8,10-6.8,23.4-14.9,40.2c-4.4,8.9-10.9,21.5-19.8,37.8l-6.9,12.5
			c21.8-22.5,40.8-41.1,57.3-55.6c16.2-14.6,28.2-20.2,36.3-16.7c20.5,9,12.5,56.6-27.7,141.3
			C476.4,1441.2,474.6,1442.7,472.1,1443.5z"/>
		<path d="M635.9,1472.2c-10.6,6.8-23.4,11-38.5,12.6c-15.1,1.6-30.3-0.9-45.6-7.6c-14.9-6.5-24.2-14.7-28-24.7
			c-3.7-9.9-3.1-20,1.7-30.2c4.1-9,11-19.3,20.7-31c9.5-11.8,19.7-21.5,30.8-29.2c0.7-0.6,3.6-2.6,8.5-6.2c4.9-3.5,9.8-5.8,14.6-6.7
			c4.8-0.9,9.2-0.5,13.5,1.4c1.9,0.8,3.5,2,4.8,3.6c1.3,1.6,1.7,3,1.2,4.4c-0.1,0.4-1.1,1-2.8,2c-1.7,0.9-3,1.6-3.9,2.1
			c-10.2,4.7-19.1,9.9-26.6,15.6c-9.9,7.1-18.5,14.6-25.8,22.6c-7.4,8-13.6,17.5-18.6,28.5c-6.8,14.7,0.3,26.7,21.6,36
			c10.1,4.4,20.5,6,31.3,4.9c10.8-1.1,20.3-4.1,28.4-8.9c8.1-4.9,13.3-10.3,15.6-16.2c2.6-6.7,2.3-13.6-0.9-20.9
			c-3.2-7.2-8.1-15.5-14.7-24.9c-4.3-6.1-7.2-10.9-9-14.3c-1.7-3.4-2.3-5.9-1.7-7.4c0.9-2.3,3.4-3.4,7.6-3.2
			c4.2,0.2,8.8,1.3,13.7,3.5c2.8,1.2,4.6,2.2,5.4,2.8c0.8,0.7,1,1.4,0.7,2.2c-0.1,0.4-0.7,0.8-1.8,1.4c-1.1,0.5-1.7,1.1-1.9,1.7
			c-0.2,0.6,1.3,3.5,4.4,8.6c6.4,10.2,11.5,19.9,15.1,29c3.6,9.2,3.8,18.2,0.4,27C653.1,1458.2,646.4,1465.3,635.9,1472.2z"/>
		<path d="M783.7,1556.9c-11.5,4.1-25.2,5.4-41.1,3.9c-15.9-1.4-31.5-5.4-46.7-12c-10.3-4.5-16.9-8.2-19.9-11.3
			c-2.9-3.1-3.9-5.9-2.8-8.6c0.7-1.7,4.6-3.5,11.8-5.4c7.1-1.9,11.6-2.5,13.5-1.7c2.8,1.2,4.1,2.3,3.7,3.3c-0.3,0.8-1.2,1.3-2.7,1.5
			c-1.5,0.2-2.3,0.7-2.6,1.2c-0.3,0.8,0.9,2.2,3.6,4.2c2.7,2.1,6.2,4,10.5,5.9c10.1,4.4,20.9,7.3,32.3,8.8
			c11.4,1.5,21.3,1.2,29.6-0.8c8.3-2,13.3-5.7,15.1-11.2c1.7-5.3,1-10.4-2.1-15.3c-3.1-4.9-7.5-9.4-13.1-13.5
			c-5.6-4.1-15.1-10.6-28.4-19.5c-14.5-9.6-25.6-17.4-33.2-23.3c-7.6-5.9-13.4-11.6-17.2-17.2c-3.8-5.6-4.8-11-3-16.2
			c3.2-9.3,11.4-15.6,24.5-18.8c13.1-3.2,27.2-4.1,42.3-2.6c15.2,1.5,26.6,3.9,34.2,7.2c7.8,3.4,11.2,7.1,10.2,11.1
			c-0.6,2.4-2.3,4.6-5,6.7c-2.7,2.1-5.9,2.3-9.6,0.7c-1.4-0.6-2.8-1.7-4.1-3.3c-1.4-1.6-2.9-2.7-4.5-3.5c-4.6-2-12.2-3.9-22.8-5.6
			c-10.6-1.7-20.7-1.7-30.2-0.1c-9.6,1.6-15.6,6.1-18,13.3c-1.6,4.7,0.4,9.5,5.9,14.5c5.6,5,16.5,12.9,32.9,23.8
			c1.9,1.5,3.9,2.9,5.9,4.1c2,1.2,3.8,2.4,5.3,3.5c17.1,11.4,29.9,21.6,38.4,30.4c8.5,8.8,11.4,17.8,8.5,26.8
			C802.2,1546.5,795.1,1552.8,783.7,1556.9z"/>
	</g>
</g>
<g>
	<g>
		<path d="M1528.7,1405.3c-0.6,2.6-1.9,4.4-3.8,5.6c-0.5,0.3-2.5,0.9-6,1.6c-3.5,0.8-6.5,2-9.2,3.6c-8.5,5.3-17.9,12-28.4,20
			c-10.6,8.1-19.2,15.5-25.8,22.1c3.9,10.1,9.7,26.1,17.6,48c8.1,21.6,16.5,44.2,25.3,67.8c3.8,9.8,7.9,20.9,12.3,33
			c4.5,12.1,7,19.7,7.6,22.9c0.5,2.5,0,5.2-1.7,8.1c-1.6,2.9-3.6,5.2-5.9,6.8c-1.3,0.9-2.8,1.1-4.2,0.6c-1.5-0.5-2.5-1.6-3.2-3.2
			l-4-10.8c-5.1-16.6-12.1-36.7-20.8-60.3c-6.2-17.2-13.3-36.9-21.3-59.1c-7.8-22.5-12.7-36.5-14.8-41.7
			c-35.4,29.3-59,50.7-70.4,63.6c-2,2.5-4.5,4.7-7.3,6.6c-3.4,2.4-7.2,3.2-11.2,2.5c-4.1-0.7-6.6-2.8-7.5-6.2
			c-0.6-2.3-0.5-4.3,0.4-6.1c0.9-1.8,2.2-3.3,3.9-4.5c10.6-8.1,19.5-14.9,26.6-20.5c16.1-13,36-29.6,59.6-49.6
			c-2.1-6.9-3.4-11.8-4-14.9c-0.6-3.1-0.4-4.9,0.5-5.5c3.4-2.2,7-2.5,10.7-1c0.7,0.3,1.7,1.7,2.9,4.3c1.2,2.5,1.9,4.2,2.2,5.1
			c3.9-2.8,10-8.1,18.4-15.8c18-15.9,30.4-25.9,37.4-30.3c8.4-5.2,14.4-7.4,18-6.5c2.5,0.5,4.5,3,6.1,7.5
			C1529.3,1400.6,1529.3,1402.7,1528.7,1405.3z"/>
		<path d="M1691.7,1483.4c-0.3,12.6-3.4,25.2-9.4,37.8c-6,12.8-15.2,23.1-27.4,31c-12.1,7.9-22.8,10.3-32,7.1
			c-9.1-3.2-16.1-10.2-20.8-20.8c-4.1-9.3-7.6-22-10.4-38c-2.8-16.1-3.7-31.5-2.6-46.3c0-1,0.3-4.9,0.7-11.6
			c0.5-6.7,1.7-12.4,3.7-17c2-4.6,4.7-8,8.2-10.1c1.5-0.9,3.1-1.4,4.8-1.2c1.7,0.1,2.8,0.9,3.3,2.3c0.2,0.4,0.1,1.6-0.2,3.7
			c-0.3,2.1-0.6,3.7-0.8,4.8c-2.5,11.8-3.9,22.8-4.3,33c-0.7,13.2-0.3,25.6,1.2,37.2c1.5,11.6,4.8,23.1,9.9,34.5
			c6.9,15.2,19.1,17,36.4,5.9c8.1-5.2,14.3-12.4,18.8-21.6c4.4-9.1,6.9-18.5,7.5-28c0.6-9.5-0.5-17.2-3.3-23
			c-3.1-6.6-7.8-11.2-14.1-13.8c-6.2-2.6-14.1-4.6-23.5-6c-6.1-1-10.7-2-13.8-3.1c-3.1-1.1-5-2.4-5.6-4c-1-2.4-0.4-5.2,1.9-8.5
			c2.3-3.3,5.4-6.1,9.3-8.5c2.2-1.3,3.7-2.1,4.5-2.2c0.8-0.1,1.4,0.2,1.7,1c0.2,0.4,0.1,1.2-0.1,2.5c-0.2,1.2-0.2,2.2,0.1,2.8
			c0.3,0.6,2.8,1.5,7.7,2.8c9.7,2.3,18.3,5.3,25.9,9c7.6,3.7,13.5,9.9,17.7,18.5C1690.3,1460.9,1692,1470.8,1691.7,1483.4z"/>
		<path d="M1729.4,1257.9c1.8,3.8,5.1,11.4,10,22.7c5,11.2,10.1,22.3,15.6,33.3c10.6,21,22.1,42,34.3,62.8
			c12.5,20.5,21,33.7,25.2,39.8c0.6,1,1.4,2.1,2.2,3.2c0.9,1.1,1.7,2.1,2.5,3.1c3.5,4.4,5.6,7.1,6.2,8.2c1,1.7,0.8,4-0.6,6.9
			c-1.5,2.9-2.8,4.7-4.2,5.5c-1.8,1.1-3.5,1-4.9-0.1c-1.5-1.1-2.9-3-4.5-5.6c-5.6-9.5-11.1-19.6-16.6-30.4l-8.1-15
			c-2.7-5-6.4-11.5-11-19.6c-4.5-8.1-8.4-14.9-11.7-20.4c7.5,34.3,11.3,63.9,11.2,89.2c-0.2,25.3-6.6,41.9-19.5,49.7
			c-5.9,3.6-12.4,3.8-19.6,0.6c-7.2-3.3-13.6-10.3-19.3-21.3c-7.4-14.5-10.8-33.2-10.4-55.9c0.4-22.6,3.2-43.5,8.3-62.4
			c5-18.8,10-29.5,15.3-32.4c5-2.7,8.5-2.1,10.4,1.9c1.3,2.6,2,6.1,2.2,10.3c0.2,4.3,0.1,8.3-0.4,12.1c-0.5,3.8-0.8,5.8-1.2,6
			c-0.3,0.2-0.8,0.2-1.3,0.2c-0.5-0.1-0.9-0.3-1.1-0.6c-0.5-0.9-0.8-2.7-1.1-5.4c-0.3-2.7-0.6-4.4-1-5.1c-0.5-0.9-0.9-1.5-1.2-1.8
			c-0.3-0.3-0.9-0.2-1.7,0.2c-3.3,1.8-6.8,10.6-10.3,26.3c-3.6,15.8-5.4,33.2-5.3,52c0.1,18.9,3.4,34.6,9.8,47
			c2.3,4.4,5.3,7.9,9,10.7c3.7,2.7,7.6,2.9,11.5,0.5c12.4-7.5,17.8-25.2,16.1-53.3c-1.7-28.1-6.2-58.5-13.6-91.4l-12-23.3
			c-10.4-20.8-15.8-32-16.4-33.3c-5.2-11.6-8.6-20.1-10-25.6c-0.6-2.1-0.8-3.6-0.8-4.6c0-1,0.7-1.8,1.9-2.4c1.5-0.8,3.3-0.9,5.4-0.4
			c2.1,0.5,3.6,1.8,4.5,4L1729.4,1257.9z"/>
		<path d="M1912.4,1358.1c1.1,10.5-0.4,20.9-4.6,31.1c-4.3,10.3-11.8,18.4-22.6,24.3c-10.7,5.9-20.7,7.3-29.7,4
			c-9-3.3-16.4-9.7-22.1-19.1c-4.9-8.2-9.6-19.3-14-33.1c-4.3-13.9-6.8-27.1-7.3-39.7c-0.1-0.9-0.3-4.1-0.5-9.8
			c-0.3-5.7,0.3-10.4,1.7-14.2c1.4-3.8,3.6-6.4,6.6-7.9c1.4-0.7,2.8-0.9,4.4-0.7c1.6,0.2,2.7,1,3.4,2.2c0.2,0.4,0.3,1.4,0.2,3.1
			c-0.1,1.7-0.2,3.1-0.2,4c-1.1,9.8-1.3,19.1-0.5,27.8c0.8,11.2,2.5,21.7,5.1,31.7c2.7,9.9,7,20,13.1,30
			c8.2,13.3,20.1,15.7,35.3,7.4c7.1-3.8,12.3-9.5,15.4-16.9c3.2-7.4,4.5-15.1,3.9-23c-0.5-8-2.5-14.5-5.8-19.6
			c-3.7-5.8-8.7-10-14.9-12.7c-6.2-2.7-13.8-4.9-22.8-6.9c-5.9-1.3-10.3-2.5-13.4-3.7c-3-1.2-4.9-2.5-5.7-3.9
			c-1.2-2.1-0.9-4.4,0.9-7c1.8-2.6,4.4-4.7,7.9-6.4c1.9-1,3.3-1.4,4-1.5c0.7,0,1.3,0.3,1.7,1c0.2,0.3,0.3,1,0.2,2.1
			c-0.1,1,0.1,1.8,0.4,2.3c0.3,0.5,2.8,1.5,7.5,3c9.4,2.7,17.8,5.9,25.4,9.7c7.6,3.7,13.9,9.4,18.8,17
			C1908.6,1339.2,1911.3,1347.6,1912.4,1358.1z"/>
		<path d="M2019.3,1326.1c-0.3,8.4-3.2,16.3-8.8,24c-5.6,7.8-13.2,14-22.6,18.6c-6.5,3.2-11.3,4.8-14.5,4.7
			c-3.2-0.1-5.6-1.2-7.2-3.4c-1-1.4-1.1-4.7-0.2-9.9c0.9-5.2,1.9-8.1,3.1-8.6c1.8-0.9,3-0.9,3.5-0.1c0.5,0.6,0.5,1.4,0.3,2.4
			c-0.3,1-0.3,1.7,0.1,2.2c0.5,0.6,1.9,0.8,4.2,0.5c2.3-0.3,4.8-1.1,7.5-2.4c6.2-3,11.5-7.2,15.9-12.5c4.4-5.2,7-10.6,8-16.2
			c0.9-5.5-0.2-10.4-3.5-14.6c-3.1-4.1-6.8-6.9-11.1-8.2c-4.3-1.4-8.6-1.9-13.1-1.4c-4.5,0.5-11.8,1.5-22,3.2
			c-11.2,2-20.1,3.3-26.7,4c-6.6,0.6-12.4,0.3-17.6-1c-5.1-1.3-9.1-4.3-12-8.7c-5.1-8-6.3-17-3.7-26.8c2.5-9.8,6.9-18.4,13-26
			c6.1-7.5,11.3-12.1,15.9-14c4.7-1.9,8.1-1.2,10.2,2.1c1.3,2,2.2,4.4,2.6,7.2c0.5,2.8-0.4,4.7-2.6,5.6c-0.8,0.3-2,0.4-3.4,0
			c-1.5-0.3-2.7-0.3-3.6,0.1c-2.8,1.2-6.5,4.1-11.1,8.9c-4.7,4.8-8.1,10.5-10.4,17.1c-2.3,6.6-1.4,13,2.5,19.2c2.6,4,6.5,6,11.7,6
			c5.2,0,14.2-1.1,26.8-3.3c1.6-0.1,3.2-0.3,4.6-0.7c1.5-0.3,2.8-0.6,4-0.7c13-2,23.6-2.5,32-1.4c8.4,1,15.3,5.1,20.7,12
			C2017,1310.3,2019.5,1317.8,2019.3,1326.1z"/>
	</g>
</g>
</svg>
